<svg xmlns="http://www.w3.org/2000/svg" viewBox="0 0 200 200" width="200" height="200">
      <defs>
        <filter id="g2" x="-50%" y="-50%" width="200%" height="200%">
          <feGaussianBlur stdDeviation="2" result="b"/><feComposite in="SourceGraphic" in2="b" operator="over"/>
        </filter>
        <filter id="g2b" x="-50%" y="-50%" width="200%" height="200%">
          <feGaussianBlur stdDeviation="4" result="b"/><feComposite in="SourceGraphic" in2="b" operator="over"/>
        </filter>
      </defs>
      <g transform="translate(100,115)">
        <!-- Legs -->
        <g opacity="0.8">
          <line x1="-32" y1="14" x2="-52" y2="34" stroke="#a82e10" stroke-width="3" stroke-linecap="round"/>
          <line x1="-36" y1="20" x2="-56" y2="38" stroke="#a82e10" stroke-width="2.5" stroke-linecap="round"/>
          <line x1="-34" y1="26" x2="-52" y2="42" stroke="#a82e10" stroke-width="2.5" stroke-linecap="round"/>
          <line x1="32" y1="14" x2="52" y2="34" stroke="#a82e10" stroke-width="3" stroke-linecap="round"/>
          <line x1="36" y1="20" x2="56" y2="38" stroke="#a82e10" stroke-width="2.5" stroke-linecap="round"/>
          <line x1="34" y1="26" x2="52" y2="42" stroke="#a82e10" stroke-width="2.5" stroke-linecap="round"/>
        </g>
        <!-- Claws holding dipole -->
        <polygon points="-42,-2 -62,-14 -58,-7 -38,2" fill="#ff6b35"/>
        <polygon points="-62,-14 -75,-22 -71,-16 -58,-10" fill="#ff7d4a"/>
        <polygon points="-62,-14 -74,-18 -70,-12 -58,-10" fill="#e84520"/>
        <polygon points="42,-2 62,-14 58,-7 38,2" fill="#ff6b35"/>
        <polygon points="62,-14 75,-22 71,-16 58,-10" fill="#ff7d4a"/>
        <polygon points="62,-14 74,-18 70,-12 58,-10" fill="#e84520"/>
        <!-- Dipole antenna -->
        <line x1="-75" y1="-20" x2="-8" y2="-58" stroke="#8899aa" stroke-width="2.5" stroke-linecap="round"/>
        <line x1="75" y1="-20" x2="8" y2="-58" stroke="#8899aa" stroke-width="2.5" stroke-linecap="round"/>
        <!-- Feed point balun -->
        <circle cx="0" cy="-58" r="4" fill="#334455"/>
        <circle cx="0" cy="-58" r="2.5" fill="#4af" opacity="0.8" filter="url(#g2)"/>
        <circle cx="0" cy="-58" r="1.2" fill="#fff" opacity="0.7"/>
        <!-- End caps -->
        <circle cx="-75" cy="-20" r="2" fill="#4af" opacity="0.6" filter="url(#g2b)"/>
        <circle cx="75" cy="-20" r="2" fill="#4af" opacity="0.6" filter="url(#g2b)"/>
        <!-- Body -->
        <polygon points="-48,4 -38,-16 -16,-28 0,-32 16,-28 38,-16 48,4 38,28 16,32 -16,32 -38,28" fill="#c93a15"/>
        <polygon points="0,-32 -16,-28 0,-18" fill="#ff8c5a"/>
        <polygon points="0,-32 16,-28 0,-18" fill="#ff7d4a"/>
        <polygon points="-16,-28 -38,-16 -22,-10" fill="#ff6b35"/>
        <polygon points="-16,-28 -22,-10 0,-18" fill="#ff7d4a"/>
        <polygon points="16,-28 38,-16 22,-10" fill="#ff6b35"/>
        <polygon points="16,-28 22,-10 0,-18" fill="#ff7d4a"/>
        <polygon points="-38,-16 -48,4 -30,2" fill="#e84520"/>
        <polygon points="-38,-16 -30,2 -22,-10" fill="#ff6b35"/>
        <polygon points="-22,-10 -30,2 0,0" fill="#ff7d4a"/>
        <polygon points="-22,-10 0,-18 0,0" fill="#ff8c5a"/>
        <polygon points="0,-18 22,-10 0,0" fill="#ff8c5a"/>
        <polygon points="22,-10 30,2 0,0" fill="#ff7d4a"/>
        <polygon points="38,-16 48,4 30,2" fill="#e84520"/>
        <polygon points="38,-16 30,2 22,-10" fill="#ff6b35"/>
        <polygon points="-48,4 -38,28 -30,2" fill="#c93a15"/>
        <polygon points="-30,2 -38,28 -16,18" fill="#e84520"/>
        <polygon points="-30,2 -16,18 0,0" fill="#ff6b35"/>
        <polygon points="0,0 -16,18 0,24" fill="#e84520"/>
        <polygon points="0,0 0,24 16,18" fill="#e84520"/>
        <polygon points="0,0 16,18 30,2" fill="#ff6b35"/>
        <polygon points="30,2 16,18 38,28" fill="#e84520"/>
        <polygon points="30,2 38,28 48,4" fill="#c93a15"/>
        <polygon points="-38,28 -16,32 -16,18" fill="#a82e10"/>
        <polygon points="-16,32 16,32 0,24" fill="#c93a15"/>
        <polygon points="-16,32 0,24 -16,18" fill="#a82e10"/>
        <polygon points="16,32 0,24 16,18" fill="#a82e10"/>
        <polygon points="16,32 38,28 16,18" fill="#a82e10"/>
        <!-- Happy eyes with stars -->
        <polygon points="-16,-28 -20,-42 -18,-40 -14,-28" fill="#e84520"/>
        <polygon points="16,-28 20,-42 18,-40 14,-28" fill="#e84520"/>
        <circle cx="-19" cy="-44" r="6" fill="#0a0e1a"/>
        <circle cx="-19" cy="-44" r="4" fill="#122838"/>
        <circle cx="-19" cy="-44" r="2.5" fill="#4af"/>
        <circle cx="-18" cy="-45.5" r="1.2" fill="#fff" opacity="0.8"/>
        <circle cx="19" cy="-44" r="6" fill="#0a0e1a"/>
        <circle cx="19" cy="-44" r="4" fill="#122838"/>
        <circle cx="19" cy="-44" r="2.5" fill="#4af"/>
        <circle cx="20" cy="-45.5" r="1.2" fill="#fff" opacity="0.8"/>
        <path d="M-6,-20 Q0,-16 6,-20" stroke="#a82e10" stroke-width="1.5" fill="none" stroke-linecap="round"/>
      </g>
    </svg>